<?xml version="1.0"?>
<svg xmlns="http://www.w3.org/2000/svg" viewBox="48 0 140 140">
  <defs>
    <linearGradient id="ccdc-grad" x1="53.9" y1="66.6" x2="181.4" y2="66.6" gradientUnits="userSpaceOnUse">
      <stop offset="0" stop-color="#03163d"></stop>
      <stop offset=".3" stop-color="#662483"></stop>
      <stop offset=".7" stop-color="#c0087f"></stop>
      <stop offset="1" stop-color="#0069b4"></stop>
    </linearGradient>
  </defs>
  <path fill="url(#ccdc-grad)" d="M105.6,4c-2.7.5-5.4,1.2-8,2.1-25.4,8.4-43.7,32.3-43.7,60.6,0,28.2,18.3,52.2,43.7,60.6,2.6.9,5.3,1.6,8,2.1v-8.2s0-8.3,0-8.3v-8.3c-2.8-.9-5.5-2.1-8-3.6-11.8-6.9-19.7-19.7-19.7-34.3,0-14.6,7.9-27.4,19.7-34.3,2.5-1.5,5.2-2.7,8-3.6,2.6-.8,5.3-1.4,8-1.7,1.3-.1,2.7-.2,4-.2s2.7,0,4,.2c11.8,1.2,22.1,7.6,28.6,16.8l-8.4,2.2c-5-5.9-12.1-10-20.2-11-1.3-.2-2.7-.3-4-.3s-2.7,0-4,.3c-2.8.4-5.5,1.1-8,2.1-2.9,1.2-5.6,2.8-8,4.8-7.1,5.8-11.6,14.6-11.6,24.5,0,9.9,4.5,18.7,11.6,24.5,2.4,2,5.1,3.6,8,4.8,2.5,1,5.2,1.8,8,2.1,1.3.2,2.7.3,4,.3s2.7,0,4-.3c8-1,15.1-5,20-10.8l8.4,2.3c-3,4.2-6.7,7.8-11,10.5-5.1,3.3-11.1,5.5-17.5,6.1-1.3.1-2.7.2-4,.2s-2.7,0-4-.2v8.1s0,8,0,8v8c1.3,0,2.7.1,4,.1s2.7,0,4-.1c22.9-1.4,42.6-15,52.6-34.3,1.2-2.4,2.3-4.9,3.3-7.4,2.5-6.8,3.9-14.2,3.9-21.9,0-33.9-26.4-61.6-59.8-63.7-1.3,0-2.7-.1-4-.1s-2.7,0-4,.1c-2.7.2-5.4.5-8,1M154.2,51.1h0s7.8-2.1,7.8-2.1c-1-2.5-2.2-5-3.6-7.3-7.7-12.6-21.2-21.4-36.7-22.7-1.3-.1-2.7-.2-4-.2s-2.7,0-4,.2c-2.7.2-5.4.7-8,1.4-2.8.7-5.5,1.7-8,2.9-16.3,7.6-27.7,24.1-27.7,43.3s11.3,35.7,27.7,43.3v8.7c-20.9-8.1-35.7-28.3-35.7-52,0-23.7,14.8-44,35.7-52,2.6-1,5.3-1.8,8-2.4,2.6-.6,5.3-1,8-1.2,1.3,0,2.7-.1,4-.1s2.7,0,4,.1c28.9,2.1,51.7,26.2,51.7,55.6,0,7-1.3,13.7-3.6,19.8-1,2.6-2.1,5-3.5,7.4-8.9,15.9-25.5,27-44.7,28.4v-8c8.6-.7,16.5-3.7,23.2-8.4,5.4-3.7,9.9-8.6,13.4-14.1,1.4-2.3,2.7-4.7,3.7-7.3l-7.8-2.1h0s-7.8-2.1-7.8-2.1l-7.9-2.1c-1.4,2.6-3.4,4.9-5.6,6.8-3.1,2.6-6.9,4.4-11.1,5.1-1.3.2-2.6.3-4,.3s-2.7-.1-4-.3c-2.9-.5-5.6-1.5-8-2.9-3.3-1.9-6-4.6-8-7.8-2.3-3.6-3.6-7.9-3.6-12.6,0-4.6,1.3-8.9,3.6-12.6,2-3.2,4.8-5.9,8-7.8,2.4-1.4,5.1-2.5,8-2.9,1.3-.2,2.6-.3,4-.3s2.7.1,4,.3c4.3.7,8.1,2.6,11.3,5.3,2.2,1.9,4.1,4.2,5.5,6.8l7.9-2.1,7.8-2.1Z"></path>
  <circle fill="#c0087f" cx="116.8" cy="66.2" r="6.4"></circle>
</svg>